<mxfile host="app.diagrams.net" modified="2023-07-10T14:34:44.304Z" agent="Mozilla/5.0 (Windows NT 10.0; Win64; x64; rv:109.0) Gecko/20100101 Firefox/115.0" version="21.3.8" etag="pvwNTAxh1VgR4X7sGjXN" type="github">
  <diagram name="Page-1" id="lC4eQZujbQ8XpUp5NUMu">
    <mxGraphModel>
      <root>
        <mxCell id="0" />
        <mxCell id="1" parent="0" />
      </root>
    </mxGraphModel>
  </diagram>
</mxfile>
